<svg width="231" height="70" viewBox="0 0 231 70" fill="none" xmlns="http://www.w3.org/2000/svg">
    <path d="M39.5263 66.448H36.9343L16.8703 17.872C15.7183 15.184 14.7903 12.816 14.0863 10.768L13.1263 18.064L5.25425 70H0.55025L11.8783 0.783998H14.5663L35.9743 51.664C37.0623 54.032 37.9263 56.272 38.5663 58.384C38.7583 57.68 39.7503 55.472 41.5423 51.76L65.4463 0.783998H68.0383L78.5023 70H73.7023L66.2143 17.872C65.7023 14.608 65.4463 12.144 65.4463 10.48C65.3823 10.544 65.2223 10.864 64.9663 11.44C64.7743 11.952 64.3903 12.848 63.8143 14.128C63.3023 15.344 62.7583 16.624 62.1823 17.968L39.5263 66.448ZM96.2075 70V7.696H125.296V11.536H100.624V34.192H122.896V37.936H100.624V65.968H126.256V70H96.2075ZM155.062 11.632H133.942V7.696H180.502V11.632H159.382V70H155.062V11.632ZM204.656 11.632H183.536V7.696H230.096V11.632H208.976V70H204.656V11.632Z" fill="black"/>
</svg>
